<svg width="21" height="20" viewBox="0 0 21 20" fill="none" xmlns="http://www.w3.org/2000/svg">
<g clip-path="url(#clip0_0_458)">
<g clip-path="url(#clip1_0_458)">
<g clip-path="url(#clip2_0_458)">
<path d="M18.2778 0.833252H2.72226C1.9552 0.833252 1.33337 1.45508 1.33337 2.22214V17.7777C1.33337 18.5448 1.9552 19.1666 2.72226 19.1666H18.2778C19.0449 19.1666 19.6667 18.5448 19.6667 17.7777V2.22214C19.6667 1.45508 19.0449 0.833252 18.2778 0.833252Z" stroke="#008294" stroke-width="1.66667"/>
<path d="M10.5036 11.6666C11.4241 11.6666 12.1702 10.9204 12.1702 9.99992C12.1702 9.07944 11.4241 8.33325 10.5036 8.33325C9.58311 8.33325 8.83691 9.07944 8.83691 9.99992C8.83691 10.9204 9.58311 11.6666 10.5036 11.6666Z" fill="#008294"/>
<path d="M14.933 16.1036C15.8535 16.1036 16.5997 15.3574 16.5997 14.4369C16.5997 13.5165 15.8535 12.7703 14.933 12.7703C14.0125 12.7703 13.2664 13.5165 13.2664 14.4369C13.2664 15.3574 14.0125 16.1036 14.933 16.1036Z" fill="#008294"/>
<path d="M6.06694 7.22982C6.98741 7.22982 7.7336 6.48363 7.7336 5.56315C7.7336 4.64268 6.98741 3.89648 6.06694 3.89648C5.14646 3.89648 4.40027 4.64268 4.40027 5.56315C4.40027 6.48363 5.14646 7.22982 6.06694 7.22982Z" fill="#008294"/>
</g>
</g>
</g>
<defs>
<clipPath id="clip0_0_458">
<rect width="20" height="20" fill="white" transform="translate(0.5)"/>
</clipPath>
<clipPath id="clip1_0_458">
<rect width="20" height="20" fill="white" transform="translate(0.5)"/>
</clipPath>
<clipPath id="clip2_0_458">
<rect width="20" height="20" fill="white" transform="translate(0.5)"/>
</clipPath>
</defs>
</svg>
