<svg width="21" height="20" viewBox="0 0 21 20" fill="none" xmlns="http://www.w3.org/2000/svg">
<g clip-path="url(#clip0_0_448)">
<g clip-path="url(#clip1_0_448)">
<g clip-path="url(#clip2_0_448)">
<path fill-rule="evenodd" clip-rule="evenodd" d="M6.51892 14.6419C6.51891 14.6419 6.51893 14.642 6.51892 14.6419C7.00678 14.8103 7.51792 14.9185 8.0412 14.9602C8.04119 14.9602 8.04121 14.9602 8.0412 14.9602C7.51792 14.9185 7.00678 14.8103 6.51892 14.6419ZM8.90663 14.968C8.90662 14.968 8.90664 14.968 8.90663 14.968V14.968ZM11.0427 19.7195C8.9633 19.1623 7.4162 17.6102 6.77642 15.7124C7.30764 15.8477 7.85785 15.9225 8.41719 15.9314C9.0116 17.0773 10.0672 17.9792 11.4124 18.3396C13.9528 19.0203 16.5639 17.5127 17.2446 14.9724L18.6003 9.91282C18.6683 9.65882 18.5177 9.39769 18.2636 9.32962L15.6758 8.63621C15.6646 8.12895 15.5989 7.61555 15.4743 7.10327L18.6333 7.94973C19.6495 8.22199 20.2524 9.26645 19.9802 10.2825L18.6245 15.3422C17.7396 18.6446 14.3451 20.6043 11.0427 19.7195ZM10.0527 15.7885C9.81864 16.0226 9.46245 16.0603 9.1891 15.9014C9.48559 15.8737 9.78333 15.8271 10.0809 15.7608C10.0715 15.77 10.062 15.7792 10.0527 15.7885ZM12.3526 15.1723C12.1996 15.1313 12.0435 15.1058 11.8867 15.0959C12.4355 14.8047 12.9359 14.4469 13.3804 14.0356C13.7683 14.2212 14.1236 14.4719 14.43 14.7783C14.9029 15.2512 15.243 15.8402 15.416 16.4862C15.5181 16.8672 15.292 17.2588 14.911 17.3609C14.5299 17.463 14.1382 17.2369 14.0361 16.8559C13.9279 16.4522 13.7155 16.0841 13.4199 15.7885C13.1244 15.493 12.7562 15.2804 12.3526 15.1723ZM14.2141 13.4032C14.172 13.361 14.1318 13.3169 14.0939 13.2711C14.433 12.8499 14.7233 12.3917 14.9591 11.9061C15.0239 11.9834 15.0732 12.0758 15.1011 12.1796C15.1227 12.2603 15.1652 12.334 15.2243 12.3931C15.2834 12.4522 15.357 12.4947 15.4378 12.5163C15.5185 12.538 15.6036 12.538 15.6842 12.5163C15.765 12.4947 15.8386 12.4522 15.8978 12.3931C16.1767 12.1142 16.6289 12.1142 16.9079 12.3931C17.1868 12.6721 17.1868 13.1243 16.9079 13.4032C16.6715 13.6397 16.377 13.8097 16.054 13.8963C15.7311 13.9827 15.391 13.9827 15.068 13.8963C14.7451 13.8097 14.4506 13.6397 14.2141 13.4032Z" fill="#FFAD43"/>
<path fill-rule="evenodd" clip-rule="evenodd" d="M11.1936 2.15865L2.91419 4.37709C2.66016 4.44516 2.50941 4.70628 2.57747 4.96031L3.9332 10.0199C4.61386 12.5602 7.225 14.0677 9.76531 13.3871C12.3056 12.7064 13.8131 10.0953 13.1325 7.55498L11.7767 2.49537C11.7087 2.24133 11.4476 2.09058 11.1936 2.15865ZM2.54445 2.9972C1.52832 3.26948 0.925308 4.31392 1.19758 5.33005L2.5533 10.3896C3.43818 13.692 6.83264 15.6518 10.135 14.767C13.4375 13.8821 15.3972 10.4876 14.5124 7.18524L13.1566 2.12563C12.8844 1.10949 11.84 0.506485 10.8238 0.778755L2.54445 2.9972Z" fill="#FFAD43"/>
<path fill-rule="evenodd" clip-rule="evenodd" d="M5.49355 6.64401C5.43314 6.6602 5.37653 6.68813 5.32691 6.72619C5.2773 6.76426 5.23567 6.81173 5.2044 6.86589C5.17314 6.92004 5.15284 6.97982 5.14468 7.04182C5.13652 7.10382 5.14065 7.16682 5.15683 7.22722C5.25894 7.60827 5.0328 7.99995 4.65175 8.10204C4.27071 8.20415 3.87904 7.97801 3.77694 7.59697C3.7122 7.35536 3.69568 7.10336 3.72834 6.85536C3.76098 6.60737 3.84215 6.36822 3.96722 6.1516C4.0923 5.93498 4.2588 5.74511 4.45725 5.59283C4.6557 5.44056 4.88219 5.32886 5.12381 5.26412C5.36542 5.19938 5.61742 5.18286 5.86542 5.21552C6.11342 5.24817 6.35255 5.32934 6.56918 5.45441C6.7858 5.57948 6.97568 5.74598 7.12795 5.94443C7.28022 6.14288 7.39192 6.36938 7.45666 6.61099C7.55875 6.99204 7.33263 7.38371 6.95158 7.48581C6.57054 7.58791 6.17886 7.36178 6.07676 6.98074C6.06057 6.92033 6.03265 6.86371 5.99458 6.81409C5.95652 6.76448 5.90905 6.72285 5.8549 6.69158C5.80074 6.66032 5.74095 6.64002 5.67895 6.63186C5.61695 6.6237 5.55395 6.62783 5.49355 6.64401Z" fill="#FFAD43"/>
<path fill-rule="evenodd" clip-rule="evenodd" d="M10.0933 5.41135C9.9713 5.44404 9.86729 5.52385 9.80414 5.63323C9.74099 5.7426 9.72388 5.87258 9.75656 5.99457C9.85867 6.37561 9.63254 6.76729 9.25149 6.86938C8.87044 6.97149 8.47877 6.74535 8.37668 6.3643C8.24593 5.87635 8.31437 5.35643 8.56696 4.91894C8.81955 4.48145 9.23558 4.16221 9.72355 4.03146C10.2115 3.90071 10.7314 3.96916 11.1689 4.22175C11.6064 4.47433 11.9257 4.89037 12.0563 5.37833C12.1585 5.75938 11.9323 6.15105 11.5513 6.25315C11.1702 6.35525 10.7786 6.12912 10.6765 5.74808C10.6438 5.62609 10.564 5.52208 10.4546 5.45892C10.3453 5.39578 10.2153 5.37867 10.0933 5.41135Z" fill="#FFAD43"/>
<path fill-rule="evenodd" clip-rule="evenodd" d="M5.25596 9.88783C5.5349 9.60888 5.98717 9.60888 6.26611 9.88783C6.62075 10.2424 7.06249 10.4975 7.54693 10.6273C8.03138 10.7571 8.54146 10.7571 9.0259 10.6273C9.51034 10.4975 9.95208 10.2424 10.3067 9.88783C10.6614 9.53317 10.9164 9.09142 11.0462 8.60699C11.1483 8.22594 11.5399 7.99981 11.921 8.10191C12.302 8.20401 12.5282 8.59567 12.4261 8.97672C12.2314 9.70336 11.8488 10.366 11.3169 10.8979C10.7849 11.4299 10.1223 11.8125 9.39564 12.0072C8.66898 12.2019 7.90386 12.2019 7.17719 12.0072C6.45052 11.8125 5.78791 11.4299 5.25596 10.8979C4.97702 10.619 4.97702 10.1668 5.25596 9.88783Z" fill="#FFAD43"/>
</g>
</g>
</g>
<defs>
<clipPath id="clip0_0_448">
<rect width="20" height="20" fill="white" transform="translate(0.5)"/>
</clipPath>
<clipPath id="clip1_0_448">
<rect width="20" height="20" fill="white" transform="translate(0.5)"/>
</clipPath>
<clipPath id="clip2_0_448">
<rect width="20" height="20" fill="white" transform="translate(0.5)"/>
</clipPath>
</defs>
</svg>
