<svg width="21" height="20" viewBox="0 0 21 20" fill="none" xmlns="http://www.w3.org/2000/svg">
<g clip-path="url(#clip0_0_442)">
<g clip-path="url(#clip1_0_442)">
<g clip-path="url(#clip2_0_442)">
<path fill-rule="evenodd" clip-rule="evenodd" d="M15.936 9.49204H17.1463C18.3827 9.49204 19.3529 10.5524 19.2434 11.784L18.5905 19.117C18.5542 19.5242 18.2131 19.8364 17.8041 19.8364C17.3405 19.8364 16.9766 19.4388 17.0178 18.977L17.6706 11.644C17.698 11.3361 17.4555 11.071 17.1463 11.071H2.801C2.49189 11.071 2.24935 11.3361 2.27676 11.644L2.92957 18.977C2.97067 19.4388 2.60685 19.8364 2.1432 19.8364C1.73432 19.8364 1.39309 19.5242 1.35684 19.117L0.704027 11.784C0.594392 10.5524 1.5646 9.49204 2.801 9.49204H3.90922C3.80382 8.74035 3.75041 8.0315 3.75041 7.40721C3.75041 6.99152 3.77409 6.58401 3.82104 6.18752H1.28947C0.853459 6.18752 0.5 5.83407 0.5 5.39805C0.5 4.96204 0.853459 4.60857 1.28947 4.60857H3.92105C3.99706 4.60857 4.07057 4.61932 4.14013 4.63937C4.93196 2.02267 6.91295 0.182373 9.92262 0.182373C12.9453 0.182373 14.9303 2.0385 15.7153 4.67311C15.8113 4.63159 15.9172 4.60857 16.0284 4.60857H18.66C19.096 4.60857 19.4495 4.96204 19.4495 5.39805C19.4495 5.83407 19.096 6.18752 18.66 6.18752H16.0284L16.0242 6.18751C16.0712 6.58401 16.0948 6.99151 16.0948 7.40721C16.0948 8.0315 16.0415 8.74035 15.936 9.49204ZM14.3403 9.49204C14.4567 8.73098 14.5159 8.01771 14.5159 7.40721C14.5159 5.68219 14.0427 4.2497 13.2714 3.28388C12.5309 2.35693 11.4445 1.76132 9.92262 1.76132C8.40072 1.76132 7.31429 2.35693 6.57393 3.28388C5.80251 4.2497 5.32936 5.68219 5.32936 7.40721C5.32936 8.01771 5.38847 8.73098 5.50497 9.49204H14.3403ZM8.77868 6.1642C8.77868 6.45488 8.54304 6.69052 8.25237 6.69052C7.96168 6.69052 7.72605 6.45488 7.72605 6.1642C7.72605 5.87353 7.96168 5.63789 8.25237 5.63789C8.54304 5.63789 8.77868 5.87353 8.77868 6.1642ZM9.83132 6.1642C9.83132 7.03624 9.12439 7.74315 8.25237 7.74315C7.38034 7.74315 6.67342 7.03624 6.67342 6.1642C6.67342 5.29217 7.38034 4.58526 8.25237 4.58526C9.12439 4.58526 9.83132 5.29217 9.83132 6.1642ZM11.6971 6.69052C11.9877 6.69052 12.2234 6.45488 12.2234 6.1642C12.2234 5.87353 11.9877 5.63789 11.6971 5.63789C11.4064 5.63789 11.1707 5.87353 11.1707 6.1642C11.1707 6.45488 11.4064 6.69052 11.6971 6.69052ZM11.6971 7.74315C12.5691 7.74315 13.276 7.03624 13.276 6.1642C13.276 5.29217 12.5691 4.58526 11.6971 4.58526C10.825 4.58526 10.1181 5.29217 10.1181 6.1642C10.1181 7.03624 10.825 7.74315 11.6971 7.74315ZM5.88292 15.2631V14.2104H9.04081V15.2631H5.88292ZM4.30397 13.1578C4.30397 12.8672 4.53961 12.6315 4.83028 12.6315H10.0934C10.3841 12.6315 10.6198 12.8672 10.6198 13.1578V16.3157C10.6198 16.6063 10.3841 16.842 10.0934 16.842H4.83028C4.53961 16.842 4.30397 16.6063 4.30397 16.3157V13.1578ZM11.4328 13.5985C11.4328 13.1625 11.7863 12.8091 12.2223 12.8091H14.8539C15.2899 12.8091 15.6434 13.1625 15.6434 13.5985C15.6434 14.0345 15.2899 14.388 14.8539 14.388H12.2223C11.7863 14.388 11.4328 14.0345 11.4328 13.5985ZM12.2223 14.9596C11.7863 14.9596 11.4328 15.3131 11.4328 15.7491C11.4328 16.1851 11.7863 16.5385 12.2223 16.5385H14.8539C15.2899 16.5385 15.6434 16.1851 15.6434 15.7491C15.6434 15.3131 15.2899 14.9596 14.8539 14.9596H12.2223Z" fill="#7A1D47"/>
</g>
</g>
</g>
<defs>
<clipPath id="clip0_0_442">
<rect width="20" height="20" fill="white" transform="translate(0.5)"/>
</clipPath>
<clipPath id="clip1_0_442">
<rect width="20" height="20" fill="white" transform="translate(0.5)"/>
</clipPath>
<clipPath id="clip2_0_442">
<rect width="20" height="20" fill="white" transform="translate(0.5)"/>
</clipPath>
</defs>
</svg>
