<svg width="21" height="20" viewBox="0 0 21 20" fill="none" xmlns="http://www.w3.org/2000/svg">
<g clip-path="url(#clip0_0_414)">
<path fill-rule="evenodd" clip-rule="evenodd" d="M6.18406 2.688L4.25283 5.08464C5.06044 5.5057 5.40778 6.58861 4.82197 7.42448L3.28001 9.62467H8.79259L7.25063 7.42448C6.6141 6.51623 7.07932 5.31631 8.03961 4.99074L6.18406 2.688ZM9.89789 4.90621L6.57339 0.780515C6.37325 0.532146 5.99486 0.532146 5.79473 0.780515L2.47022 4.90621L2.4611 4.91753L2.30655 5.10933L1.91722 5.59249C1.73975 5.81273 1.78733 6.10531 1.9656 6.27295C2.00849 6.31329 2.05894 6.34639 2.11565 6.36951C2.17328 6.39302 2.23738 6.40621 2.30655 6.40621H2.92705H3.17337H3.18791H3.36902H3.51171C3.59264 6.40621 3.64005 6.49733 3.5936 6.5636L3.51171 6.68045L2.79062 7.70936L2.65266 7.90621L1.44831 9.62467L1.44577 9.62829L1.35805 9.75346L0.948592 10.3377C0.716362 10.6691 0.95341 11.1246 1.35805 11.1246H2.07149H2.22434H2.22877H5.30688V13.8344C4.92667 13.7964 4.54099 13.7769 4.15077 13.7769C3.44793 13.7769 2.75983 13.84 2.09182 13.9609C1.66261 14.0385 1.41949 14.4838 1.55526 14.8983C1.67784 15.2725 2.06745 15.4862 2.45562 15.4199C3.00607 15.3259 3.57235 15.2769 4.15077 15.2769C7.3491 15.2769 10.1981 16.7796 12.0277 19.1217C12.236 19.3883 12.5861 19.5086 12.9076 19.4033C13.3824 19.2478 13.5832 18.6853 13.2795 18.2886C12.5984 17.3989 11.7901 16.6117 10.8819 15.954C12.7029 14.0281 15.282 12.8264 18.1418 12.8264C18.6301 12.8264 19.1102 12.8614 19.5798 12.9291C20.0527 12.9973 20.5004 12.6464 20.5004 12.1686C20.5004 11.8191 20.2556 11.515 19.9102 11.4617C19.3338 11.3726 18.7432 11.3264 18.1418 11.3264C17.7584 11.3264 17.3794 11.3452 17.0056 11.3819V9.21963H18.688H18.6924H18.8453H19.5587C19.9633 9.21963 20.2004 8.76404 19.9682 8.43267L19.5587 7.84843L19.471 7.72326L19.4684 7.71963L18.8623 6.85478L18.7244 6.65793L18.0033 5.62902L17.9214 5.51217C17.8749 5.4459 17.9223 5.35478 18.0033 5.35478H18.1273H18.1418H18.146H18.3882H19.0087C19.1631 5.35478 19.2922 5.28901 19.3807 5.18958C19.4092 5.15753 19.4335 5.12198 19.453 5.08401C19.5378 4.91935 19.5334 4.70914 19.398 4.54106L19.0087 4.0579L18.8541 3.8661L18.845 3.85478L16.411 0.834226C16.2109 0.585857 15.8325 0.585857 15.6323 0.834226L13.1984 3.85478L13.1892 3.8661L13.0347 4.0579L12.6454 4.54106C12.5767 4.62622 12.5418 4.72219 12.535 4.81758C12.5342 4.8288 12.5338 4.84001 12.5338 4.85119C12.5331 5.11014 12.7369 5.35478 13.0347 5.35478H13.6552H13.798C13.8317 5.35478 13.8597 5.37062 13.8774 5.3939L13.8807 5.3986C13.9025 5.43087 13.9057 5.47535 13.8799 5.51217L13.798 5.62902L13.0769 6.65793L13.0347 6.71816L12.9404 6.85272L12.3328 7.71963L12.3303 7.72326L12.2426 7.84843L11.8331 8.43267C11.6009 8.76404 11.8379 9.21963 12.2426 9.21963H12.956H13.1089H13.1133H15.5056V11.6302C13.2349 12.1633 11.2238 13.3699 9.69455 15.0278C9.65835 15.067 9.62761 15.1079 9.60203 15.1499C8.73174 14.68 7.79393 14.3191 6.80688 14.0855V11.1246H9.84384H9.84827H10.0011H10.7146C11.1192 11.1246 11.3562 10.6691 11.124 10.3377L10.7146 9.75346L10.6268 9.62829L10.6243 9.62467L9.41994 7.90621L9.28199 7.70936L8.56089 6.68045L8.479 6.5636C8.43256 6.49733 8.47997 6.40621 8.56089 6.40621H8.70358H9.18021H9.19475H9.44106H9.96002H10.0616C10.1064 6.40621 10.1491 6.40067 10.1893 6.39037C10.5257 6.30415 10.6863 5.88467 10.4509 5.59249L10.0616 5.10933L9.90701 4.91753L9.89789 4.90621ZM14.8259 4.22571L16.0217 2.74171L17.1266 4.11286C16.4174 4.57888 16.1411 5.58559 16.693 6.37305L17.6367 7.71963H14.1645L15.1083 6.37305C15.619 5.64426 15.4204 4.72768 14.8259 4.22571Z" fill="#31775A"/>
</g>
<defs>
<clipPath id="clip0_0_414">
<rect width="20" height="20" fill="white" transform="translate(0.5)"/>
</clipPath>
</defs>
</svg>
