<svg width="21" height="20" viewBox="0 0 21 20" fill="none" xmlns="http://www.w3.org/2000/svg">
<g clip-path="url(#clip0_0_424)">
<g clip-path="url(#clip1_0_424)">
<path fill-rule="evenodd" clip-rule="evenodd" d="M6.48061 2.23328L7.43426 3.25513C7.47745 3.28664 7.51869 3.32258 7.55744 3.36304L8.94046 4.80719L10.0873 2.23327L6.48061 2.23328ZM4.77005 2.39901L6.01786 3.73605L2.01005 12.4477C1.85341 12.7881 1.92177 13.1899 2.1822 13.4593L3.52493 14.8489C3.54534 14.8779 3.56828 14.9057 3.59377 14.932L7.25986 18.712C7.55948 19.021 7.9715 19.1953 8.40189 19.1953H13.2447C13.5852 19.1953 13.8674 18.9458 13.9183 18.6195C14.0174 18.5567 14.1066 18.473 14.1789 18.3684L18.8746 11.5882C19.2625 11.0281 18.9177 10.2775 18.2788 10.1736L17.1856 6.81793C16.9895 6.21618 16.2539 5.99389 15.7574 6.38639L11.3023 9.90832C11.2074 9.98332 11.1333 10.0692 11.0783 10.1615H8.16002C8.12423 10.1615 8.08919 10.1634 8.05495 10.1672L9.71026 6.42501C9.73923 6.35951 9.75996 6.29186 9.77268 6.22343C9.81758 6.16598 9.85653 6.10172 9.88808 6.03088L11.6179 2.14872C11.8858 1.54746 11.4457 0.869626 10.7875 0.869629L5.43467 0.869652C4.63979 0.869655 4.22772 1.81789 4.77005 2.39901ZM12.2652 17.8317L7.44233 11.6286C7.43502 11.6192 7.42794 11.6098 7.42108 11.6002L5.80515 15.2534L8.23874 17.7627C8.28154 17.8068 8.3404 17.8317 8.40189 17.8317H12.2652ZM3.37877 12.7352L7.02326 4.81335L8.31827 6.20098L4.78448 14.19L3.37877 12.7352ZM9.08919 11.5251L13.4104 17.083L17.2558 11.5306H11.866C11.8306 11.5306 11.7959 11.5287 11.762 11.5251H9.08919ZM16.8407 10.1615H13.1809L16.0911 7.86083L16.8407 10.1615Z" fill="#FFAD43"/>
</g>
</g>
<defs>
<clipPath id="clip0_0_424">
<rect width="20" height="20" fill="white" transform="translate(0.5)"/>
</clipPath>
<clipPath id="clip1_0_424">
<rect width="18.1818" height="20" fill="white" transform="translate(1.40912)"/>
</clipPath>
</defs>
</svg>
