<svg width="21" height="20" viewBox="0 0 21 20" fill="none" xmlns="http://www.w3.org/2000/svg">
<g clip-path="url(#clip0_0_436)">
<g clip-path="url(#clip1_0_436)">
<path fill-rule="evenodd" clip-rule="evenodd" d="M12.4844 15.6194C13.2275 14.1332 13.7283 11.9802 13.7283 9.52396C13.7283 6.50406 11.8465 3.73979 10.4884 2.1642C10.4626 2.13434 10.4416 2.122 10.4296 2.11651C10.4167 2.11056 10.4051 2.10851 10.395 2.10851C10.3848 2.10851 10.3732 2.11056 10.3603 2.11651C10.3483 2.122 10.3273 2.13434 10.3015 2.1642C8.94338 3.73979 7.06163 6.50406 7.06163 9.52396C7.06163 11.9802 7.56245 14.1332 8.30554 15.6194C9.09134 17.191 9.91261 17.6192 10.395 17.6192C10.8773 17.6192 11.6986 17.191 12.4844 15.6194ZM15.1494 9.1617C15.7184 9.03259 16.2801 8.95502 16.8089 8.91232C17.1912 7.503 17.1328 5.98786 16.9676 4.82806C16.963 4.79566 16.9543 4.78043 16.951 4.77521C16.947 4.76904 16.9434 4.76605 16.9406 4.76431C16.9378 4.76258 16.9335 4.76057 16.9263 4.75961C16.9201 4.7588 16.9026 4.75749 16.8714 4.76722C16.1216 5.00078 15.2482 5.3462 14.4198 5.83471C14.2425 5.38001 14.0414 4.94326 13.8259 4.52771C14.7537 3.9976 15.6912 3.63859 16.4465 3.4033C17.3527 3.121 18.2481 3.687 18.3819 4.62663C18.5414 5.74613 18.6322 7.31029 18.2891 8.87261C18.33 8.87363 18.3704 8.87481 18.4103 8.87613C19.3589 8.90765 20.0183 9.73672 19.8356 10.6681C19.5023 12.3667 18.6744 14.9965 16.6411 16.6138C14.5231 18.2984 12.2042 19.1851 10.5001 19.1118C8.79596 19.1851 6.47717 18.2984 4.35909 16.6138C2.32581 14.9965 1.49786 12.3667 1.16458 10.6681C0.981845 9.73672 1.64128 8.90765 2.58987 8.87613C2.62977 8.87481 2.67021 8.87363 2.71117 8.87261C2.36804 7.31029 2.45884 5.74613 2.61827 4.62663C2.7521 3.687 3.64756 3.121 4.55373 3.4033C5.26491 3.62485 6.13759 3.95609 7.01169 4.43657C6.79399 4.84933 6.58996 5.28357 6.40905 5.73604C5.63255 5.29927 4.82707 4.98473 4.12884 4.76722C4.09759 4.75749 4.0801 4.7588 4.07393 4.75961C4.06664 4.76057 4.06239 4.76258 4.05964 4.76431C4.0569 4.76605 4.05325 4.76904 4.04926 4.77521C4.04588 4.78043 4.03719 4.79566 4.03258 4.82806C3.8674 5.98786 3.80901 7.503 4.1913 8.91232C4.65544 8.9498 5.14493 9.01414 5.6425 9.11663C5.79895 5.7322 7.86353 2.80451 9.21951 1.23147C9.85341 0.496087 10.9365 0.496086 11.5704 1.23147C12.9324 2.81149 15.0093 5.75821 15.1494 9.1617ZM13.3478 16.9961C14.3125 15.469 14.9746 13.2105 15.1245 10.6394C16.2534 10.3351 17.4192 10.2725 18.3629 10.304C18.3956 10.305 18.4116 10.312 18.4173 10.3148C18.4238 10.3181 18.4272 10.3214 18.4292 10.324C18.4312 10.3264 18.4336 10.3305 18.4354 10.3377C18.4369 10.3437 18.4401 10.3609 18.4337 10.393C18.1176 12.0042 17.3738 14.2056 15.7518 15.4958C14.9364 16.1443 14.1165 16.6409 13.3478 16.9961ZM7.35327 16.852C6.6728 16.5106 5.95889 16.0609 5.24836 15.4958C3.62637 14.2056 2.88254 12.0042 2.56643 10.393C2.56012 10.3609 2.56332 10.3437 2.5648 10.3377C2.56653 10.3305 2.569 10.3264 2.57102 10.324C2.57304 10.3214 2.5764 10.3181 2.58296 10.3148C2.58852 10.312 2.6046 10.305 2.6373 10.304C3.52169 10.2745 4.60106 10.3276 5.66226 10.5847C5.80157 13.0987 6.43014 15.3176 7.35327 16.852Z" fill="#31775A"/>
</g>
</g>
<defs>
<clipPath id="clip0_0_436">
<rect width="20" height="20" fill="white" transform="translate(0.5)"/>
</clipPath>
<clipPath id="clip1_0_436">
<rect width="20" height="20" fill="white" transform="translate(0.5)"/>
</clipPath>
</defs>
</svg>
