<svg width="95" height="34" viewBox="0 0 95 34" fill="none" xmlns="http://www.w3.org/2000/svg">
<g clip-path="url(#clip0_0_621)">
<path fill-rule="evenodd" clip-rule="evenodd" d="M94.3349 19.8618C94.3221 19.7283 94.2906 19.5972 94.2414 19.4725C93.9269 18.6548 92.4957 19.4172 92.007 19.6221C91.1273 19.991 90.121 20.4771 89.147 20.1983C88.8776 20.121 88.9567 19.8915 89.147 19.7742C89.2422 19.7164 91.7435 18.3013 92.4795 15.165C93.6575 10.1477 90.0428 8.75214 88.6167 8.583C87.1668 8.41131 85.5494 8.63485 84.8677 8.90938C82.9359 9.68538 82.4319 11.4108 82.2985 12.4443C82.1157 13.8654 82.0945 16.3455 81.9186 17.4615C81.803 18.1967 81.2556 19.3127 80.1779 19.2065C78.0982 19.0016 77.1429 18.2035 77.2092 16.8929C77.2551 15.9716 77.2424 15.788 77.5322 13.7447C77.7812 11.9938 77.9384 11.5765 77.9384 11.1762C77.9384 10.0296 76.3975 9.79842 75.8825 10.3143C75.4847 10.713 75.3853 11.5264 75.2859 12.8999C75.1924 14.1909 74.9943 15.8704 74.7385 16.8946C74.3408 18.49 74.181 18.6064 73.8181 19.0628C73.0642 20.0114 71.6712 19.7173 70.9913 19.0705C70.5918 18.6897 70.5374 18.3523 70.6147 17.2346C70.6921 16.1169 70.8748 14.1697 71.1315 12.1392C71.355 10.3628 71.2012 10.0959 70.6556 9.59784C70.1482 9.13377 68.2044 9.20261 67.3044 9.20261C65.9114 9.20261 65.9946 9.86557 65.9029 12.1264C65.8629 13.1132 65.817 14.6108 65.7184 15.7701C65.5586 17.657 61.9576 19.0764 60.3019 18.9914C58.586 18.903 58.4211 15.6996 58.3132 14.9542C58.2035 14.2096 58.1602 7.78066 58.3455 7.56222C58.4772 7.40923 59.5098 7.29194 60.687 7.0616C63.2936 6.55164 63.6684 6.21676 63.6718 5.40081C63.6735 5.00049 63.648 4.44038 63.2044 4.28994C62.9443 4.20154 62.2695 4.10125 61.3745 3.99585C58.7934 3.69157 58.4296 3.78507 58.4151 3.45784C58.3905 2.88498 58.4449 1.7826 58.399 1.34828C58.2868 0.280749 57.0357 -0.0779272 55.6266 0.0155667C55.3487 0.0334155 54.9637 0.12351 54.9331 0.495785C54.9025 0.868911 54.905 1.15619 54.86 1.7877C54.7605 3.19096 54.7325 3.3431 54.1885 3.34055C53.7041 3.338 49.6738 2.98187 48.8996 3.23006C48.1244 3.47824 48.1559 4.00605 48.0938 4.27039C48.0318 4.53387 48.1703 6.11732 48.2485 6.80067C48.3259 7.48318 48.4755 8.41216 48.5681 8.55156C48.6616 8.6918 48.9523 9.08787 49.7614 8.98673C52.51 8.6425 54.3432 8.22688 54.7155 8.13423C55.0869 8.04074 55.1294 7.99399 55.1336 8.28892C55.1353 8.45636 55.205 11.8128 55.2169 12.8098C55.2365 14.5148 55.5246 19.4538 50.93 20.2196C49.0186 20.5383 47.2269 19.9816 46.4119 19.0832C45.9495 18.5732 46.1764 18.507 46.3804 18.1755C46.6898 17.6715 49.2718 14.638 47.108 11.4915C45.8322 9.63523 42.7726 9.48819 41.6617 9.97011C40.8008 10.3432 40.1047 11.5 39.9704 12.9109C39.5557 17.2626 42.0459 19.9544 42.1428 20.1201C42.2584 20.319 41.8232 20.9599 40.3019 21.1826C38.2621 21.4818 35.1302 19.0212 35.2109 18.7007C35.2509 18.5477 36.6379 16.2758 36.6711 14.0804C36.6821 13.3333 36.4356 12.35 35.9248 11.3564C35.4132 10.3628 33.8035 8.82949 32.0611 9.16607C27.9612 9.95651 28.4286 14.0073 28.7125 15.1131C29.3023 17.3995 30.6834 19.4172 30.9087 19.821C31.2155 20.3692 22.2336 23.9338 21.886 20.597C21.5401 17.289 26.4509 10.1563 26.0642 7.38883C25.7157 4.89595 24.0397 4.37408 22.5821 4.34858C21.1653 4.32308 20.7913 4.54917 20.312 4.82795C20.0358 4.98859 19.6389 5.30647 19.0881 4.7812C18.7218 4.43188 18.4796 4.18709 18.092 3.87686C17.8957 3.71962 17.5812 3.51989 17.0543 3.44254C16.5273 3.3652 15.8457 3.44254 15.4123 3.62868C14.9788 3.81567 14.6371 4.1412 14.281 4.45143C13.9241 4.76165 13.0206 5.77649 12.1784 5.40251C11.8129 5.24017 10.5746 4.62056 9.68217 4.23384C7.95771 3.48589 5.47087 4.69706 4.57592 6.29155C3.24241 8.6646 0.611936 17.9868 0.214179 19.2158C-0.679927 21.9764 1.34456 24.2271 4.07702 24.0979C5.2312 24.0426 6.00036 23.6202 6.72959 22.2909C7.15114 21.5234 11.1117 11.1592 11.4058 10.6628C11.62 10.3016 12.3322 9.82647 12.9356 10.1359C13.5408 10.4469 13.6606 11.0946 13.5714 11.704C13.4269 12.6899 10.6341 19.0135 10.527 19.7283C10.3443 20.9454 10.9213 21.622 12.1818 21.6883C13.0453 21.7333 13.9062 21.4223 14.5896 20.1312C14.972 19.4096 19.3754 10.571 19.7655 9.98116C20.1939 9.3335 20.5389 9.12017 20.9741 9.14312C21.3132 9.16012 21.8546 9.24766 21.7186 10.2642C21.586 11.2603 18.0453 17.7463 17.673 19.3339C17.1095 21.7427 18.6513 24.9827 22.781 25.1314C24.8327 25.2062 29.582 24.3104 32.2575 22.2782C33.2289 21.5404 32.9723 21.4767 33.5774 22.0138C34.4485 22.7864 36.0651 23.8743 37.657 23.8743C41.2716 23.8743 43.9114 21.6135 44.0313 21.5319C44.0501 21.519 44.0729 21.5134 44.0956 21.516C44.1183 21.5187 44.1392 21.5294 44.1545 21.5464C44.3738 21.7843 46.615 23.0346 48.1856 23.0864C51.9244 23.2097 54.1384 21.1316 54.9747 20.1533C55.4347 19.6151 55.8637 19.0512 56.2598 18.4645C56.2711 18.4477 56.286 18.4338 56.3035 18.4237C56.3209 18.4136 56.3405 18.4075 56.3606 18.4061C56.3807 18.4046 56.4009 18.4077 56.4197 18.4152C56.4384 18.4226 56.4552 18.4343 56.4689 18.4492C56.6924 18.6956 58.3786 21.7996 61.7281 21.3713C63.5962 21.1324 66.3746 19.5532 66.5692 19.3399C66.5791 19.3287 66.5918 19.3203 66.606 19.3155C66.6202 19.3108 66.6354 19.3099 66.65 19.3129C66.6647 19.3159 66.6783 19.3227 66.6895 19.3327C66.7007 19.3427 66.709 19.3554 66.7137 19.3696C66.8114 19.6399 67.2389 21.163 68.9515 22.3742C70.3555 23.3678 73.0582 23.5667 74.2575 22.9063C75.2519 22.3589 75.6505 22.0087 76.3465 21.3118C76.6457 21.0117 77.1013 20.7083 77.9223 20.8825C78.8402 21.0772 81.2658 21.5073 81.4205 21.5812C81.5947 21.6636 81.6219 21.9807 81.5701 22.3122C81.4868 22.834 81.2896 24.6631 81.089 26.3706C80.8876 28.0782 80.2442 33.7753 81.769 33.9861C82.6903 34.1136 83.49 33.2399 83.7017 32.3874C84.232 30.2481 84.3289 27.8402 84.6774 25.7748C85.0938 23.3159 85.2587 22.6266 85.4083 22.3521C85.5324 22.1243 85.5324 22.1779 87.25 22.324C88.4399 22.426 89.4054 22.5918 90.8392 22.3912C92.0274 22.2246 94.4658 21.3237 94.3349 19.8618ZM34.9287 14.3354C34.8718 15.1403 34.6653 15.6503 34.2395 16.3914C33.9734 16.8538 33.6981 16.5079 33.5383 16.2792C33.3088 15.9512 32.1359 13.0971 33.0317 12.508C33.2842 12.3423 33.7848 12.2471 34.1468 12.4502C34.5089 12.6525 34.7273 12.9475 34.8268 13.2764C34.9287 13.6104 34.9661 13.7974 34.9287 14.3354ZM46.0558 14.7502C45.9512 15.6766 45.5586 16.2011 45.4141 16.3957C45.1583 16.7391 45.0554 16.8742 44.8106 16.6252C44.6118 16.4229 43.8681 14.9083 43.761 13.9096C43.7024 13.3724 43.8511 12.6049 44.3016 12.4248C44.7758 12.2352 45.256 12.3211 45.5934 12.7622C46.1229 13.4566 46.1306 14.0915 46.0558 14.7502ZM86.4358 18.8104C85.8774 19.0399 85.6344 18.8996 85.6667 17.9757C85.6735 17.7768 86.5701 13.1421 88.2844 12.3024C88.7705 12.0644 89.2635 12.0746 89.6051 12.4553C90.2511 13.1753 90.0811 14.2844 89.5949 15.2959C88.8912 16.7637 87.2033 18.4951 86.4358 18.8104Z" fill="#F64060"/>
</g>
<defs>
<clipPath id="clip0_0_621">
<rect width="94.34" height="34" fill="white"/>
</clipPath>
</defs>
</svg>
