<svg width="16" height="16" viewBox="0 0 16 16" fill="none" xmlns="http://www.w3.org/2000/svg">
<path fill-rule="evenodd" clip-rule="evenodd" d="M12.09 6.75C12.09 9.51142 9.85138 11.75 7.08997 11.75C4.32854 11.75 2.08997 9.51142 2.08997 6.75C2.08997 3.98857 4.32854 1.75 7.08997 1.75C9.85138 1.75 12.09 3.98857 12.09 6.75ZM13.34 6.75C13.34 10.2017 10.5417 13 7.08997 13C3.63818 13 0.839966 10.2017 0.839966 6.75C0.839966 3.29822 3.63818 0.5 7.08997 0.5C10.5417 0.5 13.34 3.29822 13.34 6.75ZM12.0647 12.6086L11.6373 12.1812C11.9572 11.9131 12.253 11.6173 12.5211 11.2973L12.9485 11.7247L15.4485 14.2247C15.6926 14.4688 15.6926 14.8645 15.4485 15.1086C15.2045 15.3527 14.8088 15.3527 14.5647 15.1086L12.0647 12.6086Z" fill="white"/>
</svg>
