<svg width="17" height="18" viewBox="0 0 17 18" fill="none" xmlns="http://www.w3.org/2000/svg">
<path fill-rule="evenodd" clip-rule="evenodd" d="M12.465 7.625C12.465 10.6626 10.0026 13.125 6.965 13.125C3.92743 13.125 1.465 10.6626 1.465 7.625C1.465 4.58743 3.92743 2.125 6.965 2.125C10.0026 2.125 12.465 4.58743 12.465 7.625ZM13.84 7.625C13.84 11.4219 10.7619 14.5 6.965 14.5C3.16803 14.5 0.0899963 11.4219 0.0899963 7.625C0.0899963 3.82804 3.16803 0.75 6.965 0.75C10.7619 0.75 13.84 3.82804 13.84 7.625ZM12.4372 14.0694L11.9671 13.5993C12.319 13.3044 12.6444 12.979 12.9393 12.6271L13.4094 13.0972L16.1594 15.8472C16.4279 16.1157 16.4279 16.551 16.1594 16.8194C15.8909 17.0879 15.4557 17.0879 15.1872 16.8194L12.4372 14.0694Z" fill="#707070"/>
</svg>
